<?xml version="1.0" encoding="UTF-8"?>
<svg id="_レイヤー_1" data-name="レイヤー 1" xmlns="http://www.w3.org/2000/svg" viewBox="0 0 960 240">
  <defs>
    <style>
      .cls-1 {
        stroke: #fcfcfc;
      }

      .cls-1, .cls-2, .cls-3 {
        fill: #1e1e1e;
        stroke-miterlimit: 10;
      }

      .cls-2, .cls-3 {
        stroke: #1e1e1e;
      }

      .cls-3 {
        stroke-width: 2px;
      }
    </style>
  </defs>
  <g>
    <g>
      <path class="cls-2" d="M851.74,215.71c8.96-6.97,5.62-13.45,3.52-19.6-.54-1.59-2.39-2.3-3.86-1.48l-26.8,14.87c-2.14,1.19-1.72,4.38.65,4.98,12.98,3.27,22.93,4.02,26.49,1.24Z"/>
      <g>
        <path class="cls-2" d="M739.44,154.88l-.15-.27c-.43.79-.89,1.5-1.39,2.12-.5.62-1.09,1.21-1.76,1.77-.68.56-1.46,1.09-2.35,1.59-1.18.66-2.35,1.14-3.51,1.43-1.16.29-2.25.39-3.27.29-1.02-.1-1.92-.39-2.68-.86-.77-.48-1.37-1.12-1.82-1.92-.95-1.7-.94-3.44.04-5.23.98-1.79,2.69-3.38,5.15-4.76,1.42-.8,2.7-1.34,3.82-1.61,1.13-.28,2.31-.4,3.55-.36l-2.25-4.01c-.31-.56-.35-1.09-.1-1.6.24-.51.74-.98,1.49-1.4.75-.42,1.4-.61,1.95-.58.55.04.97.31,1.25.82l6.71,11.97c.29.52.29,1.03,0,1.53-.29.5-.78.95-1.46,1.33s-1.31.56-1.9.54c-.59-.02-1.03-.28-1.3-.78ZM727.49,156.34c.41.74.97,1.25,1.68,1.53.71.28,1.49.35,2.36.21.87-.14,1.73-.46,2.59-.93.87-.49,1.59-1.06,2.17-1.71.58-.65.94-1.35,1.08-2.11.14-.75,0-1.51-.44-2.28-.41-.72-.97-1.22-1.69-1.5s-1.52-.35-2.41-.22-1.76.44-2.63.93c-.9.51-1.63,1.1-2.19,1.78-.55.68-.88,1.39-.98,2.14-.1.75.05,1.47.44,2.16Z"/>
        <path class="cls-2" d="M762.27,142.11l-.2-.35c-.36.74-.79,1.43-1.28,2.08-.49.64-1.09,1.25-1.79,1.82-.7.57-1.54,1.13-2.53,1.68-1.19.67-2.34,1.13-3.44,1.39-1.1.26-2.04.29-2.83.11-.94-.23-1.71-.89-2.32-1.97l-3.01-5.38c-.3-.54-.31-1.07-.01-1.59.3-.52.81-.98,1.55-1.4.75-.42,1.43-.62,2.04-.61s1.07.29,1.37.83l2.44,4.35c.35.63.75,1.1,1.18,1.42.43.32.97.46,1.6.42.64-.04,1.38-.3,2.24-.78s1.54-1.04,2.12-1.73c.58-.68.92-1.34,1.01-1.97.06-.54-.27-1.46-1-2.76l-1.85-3.3c-.3-.54-.3-1.07,0-1.6s.83-1,1.56-1.41c.74-.41,1.4-.61,2-.59.6.02,1.05.3,1.35.84l4.41,7.87c.29.52.29,1.02,0,1.52-.28.5-.76.94-1.44,1.32s-1.31.56-1.9.54c-.59-.02-1.02-.27-1.29-.76Z"/>
        <path class="cls-2" d="M786.49,123.56l2.02,3.61c.32.57.32,1.13.01,1.68-.31.55-.85,1.04-1.62,1.47s-1.43.62-2.06.59c-.62-.03-1.1-.32-1.42-.89l-2.42-4.33c-.38-.68-.72-1.19-1.02-1.52s-.7-.51-1.21-.54c-.51-.03-1.17.18-1.98.63-1.62.91-2.51,1.81-2.68,2.7-.17.9.06,1.92.7,3.06l2.06,3.67c.32.56.32,1.12.02,1.67-.3.55-.83,1.04-1.59,1.46s-1.44.62-2.08.6c-.64-.02-1.11-.31-1.43-.88l-4.35-7.77c-.29-.51-.29-1.02-.01-1.52.28-.5.77-.95,1.47-1.35.68-.38,1.31-.57,1.9-.57.59,0,1.01.21,1.25.65l.14.26c.54-1.04,1.22-1.97,2.05-2.78.83-.81,1.84-1.55,3.03-2.22,1.24-.7,2.39-1.16,3.43-1.39,1.04-.23,2.01-.23,2.9,0,.52-1.02,1.18-1.94,1.98-2.74.8-.8,1.78-1.53,2.94-2.18,1.35-.76,2.6-1.26,3.74-1.52,1.14-.26,2.1-.25,2.89.03.7.25,1.34.91,1.93,1.96l2.97,5.3c.32.57.32,1.13.01,1.68-.31.55-.85,1.04-1.62,1.47s-1.44.62-2.08.6c-.64-.02-1.11-.31-1.43-.88l-2.56-4.56c-.33-.58-.63-1.03-.92-1.33-.29-.3-.7-.46-1.23-.47-.53-.02-1.2.2-2.01.66-.65.36-1.21.82-1.68,1.36-.47.54-.76,1.08-.89,1.62-.11.66.17,1.57.82,2.73Z"/>
        <path class="cls-2" d="M818.85,110.37l-.15-.27c-.43.79-.89,1.5-1.39,2.12-.5.62-1.09,1.21-1.76,1.77-.68.56-1.46,1.09-2.35,1.59-1.18.66-2.35,1.14-3.51,1.43-1.16.29-2.25.39-3.27.29-1.02-.1-1.92-.39-2.68-.86-.77-.48-1.37-1.12-1.82-1.92-.95-1.7-.94-3.44.04-5.23.98-1.79,2.69-3.38,5.15-4.76,1.42-.8,2.7-1.34,3.82-1.61,1.13-.28,2.31-.4,3.55-.36l-2.25-4.01c-.31-.56-.35-1.09-.1-1.6.24-.51.74-.98,1.49-1.4s1.4-.61,1.95-.58c.55.04.97.31,1.25.82l6.71,11.97c.29.52.29,1.03,0,1.53-.29.5-.78.95-1.46,1.33s-1.31.56-1.9.54c-.59-.02-1.03-.28-1.3-.78ZM806.9,111.83c.41.74.97,1.25,1.68,1.53.71.28,1.49.35,2.36.21.87-.14,1.73-.46,2.59-.93s1.59-1.06,2.17-1.71c.58-.65.94-1.35,1.08-2.11.14-.75,0-1.51-.44-2.28-.41-.72-.97-1.22-1.69-1.5-.72-.28-1.52-.35-2.41-.22s-1.76.44-2.63.93c-.9.51-1.63,1.1-2.19,1.78-.55.68-.88,1.39-.98,2.14-.1.75.05,1.47.44,2.16Z"/>
        <path class="cls-2" d="M841.68,97.6l-.2-.35c-.36.74-.79,1.43-1.28,2.08-.49.64-1.09,1.25-1.79,1.82-.7.57-1.54,1.13-2.53,1.68-1.19.67-2.34,1.13-3.44,1.39-1.1.26-2.04.29-2.83.11-.94-.23-1.71-.89-2.32-1.97l-3.01-5.38c-.3-.54-.31-1.07-.01-1.59s.81-.98,1.55-1.4c.75-.42,1.43-.62,2.04-.61s1.07.29,1.37.83l2.44,4.35c.35.63.75,1.1,1.18,1.42.43.32.97.46,1.6.42.64-.04,1.38-.3,2.24-.78s1.54-1.04,2.12-1.73c.58-.68.92-1.34,1.01-1.97.06-.54-.27-1.46-1-2.76l-1.85-3.3c-.3-.54-.3-1.07,0-1.6s.83-1,1.56-1.41c.74-.41,1.4-.61,2-.59.6.02,1.05.3,1.35.84l4.41,7.87c.29.52.29,1.02,0,1.52-.28.5-.76.94-1.44,1.32-.68.38-1.31.56-1.9.54-.59-.02-1.02-.27-1.29-.76Z"/>
        <path class="cls-2" d="M865.9,79.05l2.02,3.61c.32.57.32,1.13.01,1.68-.31.55-.85,1.04-1.62,1.47s-1.43.62-2.06.59c-.62-.03-1.1-.32-1.42-.89l-2.42-4.33c-.38-.68-.72-1.19-1.02-1.52s-.7-.51-1.21-.54c-.51-.03-1.17.18-1.98.63-1.62.91-2.51,1.81-2.68,2.7-.17.9.06,1.92.7,3.06l2.06,3.67c.32.56.32,1.12.02,1.67-.3.55-.83,1.04-1.59,1.46s-1.44.62-2.08.6c-.64-.02-1.11-.31-1.43-.88l-4.35-7.77c-.29-.51-.29-1.02-.01-1.52.28-.5.77-.95,1.47-1.35s1.31-.57,1.9-.57c.59,0,1.01.21,1.25.65l.14.26c.54-1.04,1.22-1.97,2.05-2.78.83-.81,1.84-1.55,3.03-2.22s2.39-1.16,3.43-1.39c1.04-.23,2.01-.23,2.9,0,.52-1.02,1.18-1.94,1.98-2.74.8-.8,1.78-1.53,2.94-2.18,1.35-.76,2.6-1.26,3.74-1.52,1.14-.26,2.1-.25,2.89.03.7.25,1.34.91,1.93,1.96l2.97,5.3c.32.57.32,1.13.01,1.68-.31.55-.85,1.04-1.62,1.47s-1.44.62-2.08.6c-.64-.02-1.11-.31-1.43-.88l-2.56-4.56c-.33-.58-.63-1.03-.92-1.33-.29-.3-.7-.46-1.23-.47-.53-.02-1.2.2-2.01.66-.65.36-1.21.82-1.68,1.36-.47.54-.76,1.08-.89,1.62-.11.66.17,1.57.82,2.73Z"/>
        <path class="cls-2" d="M882.58,58.92l2.32,4.15c.63-1.05,1.35-1.99,2.16-2.81.81-.82,1.92-1.63,3.34-2.43,1.64-.92,3.2-1.51,4.67-1.78,1.48-.26,2.78-.18,3.92.25,1.14.43,2.02,1.2,2.64,2.32.46.82.69,1.68.7,2.58,0,.9-.21,1.8-.65,2.71-.44.91-1.1,1.79-1.98,2.64-.88.85-1.94,1.63-3.18,2.32-.76.43-1.5.78-2.23,1.05-.73.28-1.37.46-1.93.57-.56.1-1.06.16-1.48.17-.43.01-1.01,0-1.75-.04l.15.27c.29.51.28,1.02-.02,1.53-.3.51-.79.96-1.48,1.35-.7.39-1.33.57-1.89.55-.56-.03-.99-.3-1.27-.81l-6.64-11.85c-.31-.55-.34-1.08-.09-1.59.25-.51.73-.96,1.45-1.37.76-.43,1.42-.62,1.98-.58.56.04.98.31,1.26.8ZM887.33,66.85c.61,1.08,1.52,1.66,2.74,1.74,1.22.08,2.56-.29,4.02-1.11,1.24-.7,2.15-1.59,2.71-2.69.57-1.1.54-2.2-.08-3.31-.4-.72-.93-1.23-1.6-1.54-.66-.31-1.42-.41-2.26-.31-.85.1-1.73.41-2.64.93s-1.7,1.14-2.28,1.83-.93,1.43-1.05,2.2.02,1.52.43,2.26Z"/>
      </g>
      <path class="cls-2" d="M868.11,49.22c-45.11-25.94-79.02-32.01-90.55-26.17-19.86,10.06,11.47,26.5-19.05,44-26.92,15.43,2.76,39.81-23.33,53.44-4.19,2.19-7.56,4.49-10.19,6.88-2.06,1.87.27,5.13,2.7,3.78l140.38-77.85c1.59-.88,1.61-3.17.03-4.08ZM798.75,51.97c-.76,5.82-6.09,9.93-11.92,9.17-5.82-.76-9.93-6.09-9.17-11.92.76-5.82,6.09-9.93,11.92-9.17,5.82.76,9.93,6.09,9.17,11.92ZM826.45,59.6c-.85,6.55-6.86,11.17-13.41,10.32-6.55-.85-11.17-6.86-10.32-13.41.85-6.55,6.86-11.17,13.41-10.32,6.55.85,11.17,6.86,10.32,13.41Z"/>
    </g>
    <g>
      <path class="cls-1" d="M827.02,149.24c-1.26-.42-2.54-.26-3.85.49-.84.48-1.47,1.09-1.9,1.84-.42.75-.6,1.59-.52,2.54.08.94.4,1.92.97,2.91.56.99,1.22,1.75,1.99,2.29.76.54,1.57.83,2.43.86.86.03,1.72-.2,2.58-.69,1.3-.74,2.1-1.76,2.38-3.07.28-1.3-.01-2.71-.88-4.24-.88-1.54-1.95-2.52-3.21-2.94Z"/>
      <path class="cls-1" d="M908.93,83.39c-2.16-3.5-6.72-4.64-10.3-2.63-25.05,14.09-120.62,66.91-152.33,84.49-4.97,2.76-5.35,9.77-.69,13.03,11.54,8.08,25.46,15.58,39.4,21.81,2.22.99,4.77.87,6.89-.32,14.35-8.05,70.92-39.33,87.87-48.74,2.78-1.54,4.31-4.64,3.88-7.8-5.64-41.29,43.86-29.7,25.27-59.86ZM797.63,177.9c-.16,1.07-.69,2.12-1.6,3.15-.91,1.03-2.18,2-3.8,2.92-1.54.88-2.99,1.43-4.33,1.64-1.34.21-2.45.16-3.33-.17-.88-.32-1.5-.8-1.86-1.43-.24-.41-.27-.87-.1-1.35.17-.49.51-.88,1.03-1.17.45-.26.85-.36,1.21-.3.35.06.74.2,1.16.42.82.42,1.64.62,2.44.61.8-.02,1.74-.33,2.8-.93.86-.49,1.47-1.06,1.83-1.71.36-.65.42-1.19.17-1.63-.38-.66-.94-.98-1.69-.96-.75.02-1.85.27-3.33.74-1.67.52-3.06.87-4.2,1.04-1.13.17-2.14.13-3.03-.13-.89-.26-1.57-.82-2.06-1.67-.43-.76-.58-1.62-.45-2.58s.59-1.94,1.36-2.91c.77-.97,1.87-1.86,3.29-2.67,1.11-.63,2.17-1.1,3.18-1.41,1-.3,1.9-.45,2.69-.45.79,0,1.45.12,2,.36.55.24.93.56,1.16.95.25.43.28.88.11,1.35-.17.47-.57.87-1.17,1.22-.44.25-.88.35-1.32.31-.44-.04-.98-.17-1.63-.39-.54-.18-1.09-.26-1.65-.23-.57.03-1.23.26-1.99.69-.78.44-1.34.96-1.69,1.54-.35.58-.4,1.09-.15,1.53.23.4.6.61,1.12.65.52.04,1.15-.04,1.89-.24.74-.2,1.73-.5,2.99-.9,1.5-.47,2.78-.75,3.85-.84,1.07-.08,1.98.02,2.72.31.74.29,1.31.78,1.71,1.47.59,1.04.81,2.1.66,3.17ZM817.69,168.71c-.17.61-.59,1.1-1.24,1.47-1.42.81-2.56.45-3.44-1.08l-3.63-6.38c-.69-1.21-1.42-2.02-2.2-2.44-.78-.42-1.74-.3-2.89.35-.77.44-1.35,1.02-1.75,1.75-.4.73-.56,1.52-.49,2.35.09.69.54,1.76,1.36,3.2l2.84,4.99c.43.75.56,1.43.4,2.04-.16.61-.58,1.11-1.27,1.5-1.42.81-2.56.45-3.44-1.08l-9.32-16.38c-.44-.77-.58-1.45-.42-2.04.16-.6.57-1.08,1.24-1.47.68-.39,1.33-.5,1.93-.33.6.17,1.12.63,1.55,1.39l3.19,5.6c.23-.86.52-1.61.85-2.22.34-.62.77-1.19,1.31-1.71.54-.52,1.17-.99,1.9-1.4,1.09-.62,2.18-.97,3.25-1.05,1.08-.08,2.08.14,3,.63.56.28,1.05.67,1.48,1.16.42.5.84,1.11,1.26,1.84l4.12,7.23c.43.76.56,1.44.39,2.05ZM835.37,156.61c-.37,1.11-.97,2.15-1.82,3.11-.84.96-1.92,1.82-3.24,2.57-1.3.74-2.58,1.22-3.83,1.45-1.25.22-2.45.21-3.6-.04-1.15-.25-2.19-.74-3.12-1.45s-1.71-1.63-2.36-2.77c-.65-1.14-1.05-2.3-1.19-3.48-.14-1.18-.03-2.31.33-3.41.36-1.1.97-2.13,1.83-3.1.85-.97,1.92-1.82,3.2-2.55,1.3-.74,2.59-1.23,3.86-1.47,1.27-.24,2.48-.23,3.63.02,1.14.25,2.18.74,3.11,1.45.93.72,1.72,1.64,2.36,2.77.64,1.12,1.03,2.28,1.17,3.45.14,1.18.03,2.32-.34,3.44ZM855.7,145.12c-.28,1.03-.76,1.98-1.44,2.84-.69.86-1.54,1.58-2.56,2.16-1.23.7-2.39,1.07-3.47,1.11-1.08.04-2.24-.14-3.47-.55l3.23,5.67c.95,1.66.73,2.88-.65,3.67-.81.46-1.47.55-1.97.27-.51-.28-.99-.83-1.46-1.65l-9.28-16.29c-.41-.72-.54-1.36-.38-1.92.15-.56.54-1.01,1.16-1.37.61-.35,1.21-.45,1.8-.3.59.15,1.08.56,1.47,1.24l.26.46c.31-1.34.78-2.46,1.42-3.37.64-.91,1.51-1.67,2.61-2.3,1.32-.75,2.71-1.15,4.17-1.18,1.46-.03,2.83.34,4.14,1.12,1.3.78,2.4,1.96,3.3,3.54.66,1.16,1.08,2.34,1.26,3.52.18,1.19.13,2.29-.14,3.32ZM868.81,138.92c-2.94,0-5.32-2.38-5.32-5.32s2.38-5.32,5.32-5.32,5.32,2.38,5.32,5.32-2.38,5.32-5.32,5.32Z"/>
      <path class="cls-1" d="M848.25,138.42c-.75-.52-1.55-.79-2.38-.82-.83-.03-1.62.16-2.37.59-1.19.68-1.96,1.66-2.3,2.94-.35,1.28-.07,2.72.84,4.32.86,1.5,1.93,2.44,3.21,2.81,1.28.37,2.53.22,3.72-.46.71-.41,1.27-.97,1.67-1.68.4-.71.58-1.54.53-2.47-.05-.94-.36-1.92-.95-2.96-.57-1-1.23-1.75-1.98-2.27Z"/>
      <circle class="cls-1" cx="868.81" cy="133.61" r="3.06"/>
    </g>
  </g>
  <g>
    <path class="cls-3" d="M96.44,145.92v-1.2c-2.47,1.86-4.91,3.38-7.32,4.55-2.41,1.17-5.01,2.06-7.82,2.66-2.81.61-5.88.91-9.21.91-4.41,0-8.49-.61-12.24-1.84-3.75-1.23-7-2.98-9.75-5.26-2.74-2.28-4.82-4.95-6.24-8.03-1.42-3.08-2.12-6.4-2.12-9.98,0-7.57,2.81-13.47,8.43-17.7,5.62-4.23,13.02-6.34,22.19-6.34,5.3,0,9.78.6,13.42,1.8s7.19,3.04,10.66,5.52v-17.88c0-2.48.75-4.36,2.26-5.63,1.51-1.27,3.65-1.91,6.44-1.91s4.93.58,6.44,1.75c1.51,1.17,2.26,2.89,2.26,5.17v53.41c0,2.31-.81,4.04-2.43,5.19s-3.71,1.73-6.27,1.73-4.6-.6-6.24-1.8c-1.64-1.2-2.46-2.91-2.46-5.12ZM60.23,128.13c0,3.28.78,6.08,2.33,8.38,1.55,2.31,3.68,4.04,6.37,5.21,2.7,1.17,5.64,1.75,8.83,1.75s6.19-.55,8.87-1.66c2.67-1.11,4.81-2.81,6.41-5.1,1.6-2.29,2.39-5.15,2.39-8.58,0-3.22-.8-6-2.39-8.32-1.6-2.32-3.75-4.1-6.47-5.32-2.72-1.23-5.7-1.84-8.94-1.84s-6.38.63-9.04,1.89c-2.65,1.26-4.71,3.06-6.17,5.41-1.46,2.35-2.19,5.08-2.19,8.19Z"/>
    <path class="cls-3" d="M176.82,146.01v-1.55c-2.2,1.83-4.52,3.37-6.95,4.61-2.43,1.24-5.08,2.17-7.96,2.77-2.88.61-6.16.91-9.85.91-4.45,0-8.44-.61-11.97-1.82-3.53-1.21-6.26-2.88-8.19-5.01-2.29-2.57-3.44-6.27-3.44-11.09v-24c0-2.42.83-4.24,2.5-5.43,1.66-1.2,3.87-1.8,6.61-1.8s5.03.61,6.74,1.82c1.71,1.21,2.56,3.02,2.56,5.41v19.39c0,2.81.36,5.17,1.08,7.08.72,1.91,2.01,3.4,3.88,4.48,1.87,1.08,4.39,1.62,7.59,1.62s6.02-.61,8.77-1.82c2.74-1.21,4.74-2.79,6-4.75,1.03-1.71,1.55-5.47,1.55-11.27v-14.73c0-2.4.85-4.2,2.56-5.41,1.71-1.21,3.93-1.82,6.68-1.82s4.95.6,6.61,1.8c1.66,1.2,2.5,3.01,2.5,5.43v35.09c0,2.31-.8,4.04-2.39,5.19-1.6,1.15-3.65,1.73-6.17,1.73s-4.6-.6-6.24-1.8c-1.64-1.2-2.46-2.88-2.46-5.04Z"/>
    <path class="cls-3" d="M270.35,129.1v16.1c0,2.54-.88,4.45-2.63,5.72-1.75,1.27-4.07,1.91-6.95,1.91s-5.05-.64-6.78-1.91c-1.73-1.27-2.6-3.18-2.6-5.72v-19.3c0-3.05-.16-5.41-.47-7.1-.32-1.69-1.17-3.07-2.56-4.15-1.39-1.08-3.6-1.62-6.61-1.62-6.03,0-9.99,1.36-11.9,4.08-1.91,2.72-2.87,6.63-2.87,11.71v16.37c0,2.51-.87,4.41-2.6,5.7-1.73,1.29-4.01,1.93-6.85,1.93s-5.07-.64-6.85-1.93c-1.78-1.29-2.66-3.19-2.66-5.7v-34.65c0-2.28.8-4.01,2.39-5.19,1.6-1.18,3.7-1.77,6.31-1.77s4.62.56,6.31,1.66c1.69,1.11,2.53,2.64,2.53,4.59v1.15c3.19-2.51,6.61-4.36,10.25-5.55,3.64-1.18,7.69-1.77,12.14-1.77s8.61.61,11.94,1.82c3.33,1.21,6.07,3.05,8.23,5.5,3.1-2.48,6.43-4.33,9.98-5.52,3.55-1.2,7.49-1.8,11.8-1.8,5.03,0,9.37.65,13.02,1.95,3.64,1.3,6.36,3.16,8.16,5.59,1.57,2.19,2.36,5.63,2.36,10.34v23.65c0,2.54-.88,4.45-2.63,5.72-1.75,1.27-4.07,1.91-6.95,1.91s-5.07-.64-6.85-1.93c-1.78-1.29-2.66-3.19-2.66-5.7v-20.36c0-2.6-.17-4.69-.51-6.26-.34-1.57-1.25-2.88-2.73-3.95-1.48-1.07-3.73-1.6-6.74-1.6-2.43,0-4.73.47-6.91,1.42-2.18.95-3.88,2.22-5.09,3.81-1.35,2.04-2.02,5.65-2.02,10.83Z"/>
    <path class="cls-3" d="M378.45,145.92v-1.2c-2.47,1.86-4.91,3.38-7.32,4.55-2.41,1.17-5.01,2.06-7.82,2.66-2.81.61-5.88.91-9.21.91-4.41,0-8.49-.61-12.24-1.84-3.75-1.23-7-2.98-9.75-5.26-2.74-2.28-4.82-4.95-6.24-8.03-1.42-3.08-2.12-6.4-2.12-9.98,0-7.57,2.81-13.47,8.43-17.7,5.62-4.23,13.02-6.34,22.19-6.34,5.3,0,9.78.6,13.42,1.8s7.19,3.04,10.66,5.52v-17.88c0-2.48.75-4.36,2.26-5.63,1.51-1.27,3.65-1.91,6.44-1.91s4.93.58,6.44,1.75c1.51,1.17,2.26,2.89,2.26,5.17v53.41c0,2.31-.81,4.04-2.43,5.19s-3.71,1.73-6.27,1.73-4.6-.6-6.24-1.8c-1.64-1.2-2.46-2.91-2.46-5.12ZM342.23,128.13c0,3.28.78,6.08,2.33,8.38,1.55,2.31,3.68,4.04,6.37,5.21,2.7,1.17,5.64,1.75,8.83,1.75s6.19-.55,8.87-1.66c2.67-1.11,4.81-2.81,6.41-5.1,1.6-2.29,2.39-5.15,2.39-8.58,0-3.22-.8-6-2.39-8.32-1.6-2.32-3.75-4.1-6.47-5.32-2.72-1.23-5.7-1.84-8.94-1.84s-6.38.63-9.04,1.89c-2.65,1.26-4.71,3.06-6.17,5.41-1.46,2.35-2.19,5.08-2.19,8.19Z"/>
    <path class="cls-3" d="M458.83,146.01v-1.55c-2.2,1.83-4.52,3.37-6.95,4.61-2.43,1.24-5.08,2.17-7.96,2.77-2.88.61-6.16.91-9.85.91-4.45,0-8.44-.61-11.97-1.82-3.53-1.21-6.26-2.88-8.19-5.01-2.29-2.57-3.44-6.27-3.44-11.09v-24c0-2.42.83-4.24,2.5-5.43,1.66-1.2,3.87-1.8,6.61-1.8s5.03.61,6.74,1.82c1.71,1.21,2.56,3.02,2.56,5.41v19.39c0,2.81.36,5.17,1.08,7.08.72,1.91,2.01,3.4,3.88,4.48,1.87,1.08,4.39,1.62,7.59,1.62s6.02-.61,8.77-1.82c2.74-1.21,4.74-2.79,6-4.75,1.03-1.71,1.55-5.47,1.55-11.27v-14.73c0-2.4.85-4.2,2.56-5.41,1.71-1.21,3.93-1.82,6.68-1.82s4.95.6,6.61,1.8c1.66,1.2,2.5,3.01,2.5,5.43v35.09c0,2.31-.8,4.04-2.39,5.19-1.6,1.15-3.65,1.73-6.17,1.73s-4.6-.6-6.24-1.8c-1.64-1.2-2.46-2.88-2.46-5.04Z"/>
    <path class="cls-3" d="M552.36,129.1v16.1c0,2.54-.88,4.45-2.63,5.72-1.75,1.27-4.07,1.91-6.95,1.91s-5.05-.64-6.78-1.91c-1.73-1.27-2.6-3.18-2.6-5.72v-19.3c0-3.05-.16-5.41-.47-7.1-.32-1.69-1.17-3.07-2.56-4.15-1.39-1.08-3.6-1.62-6.61-1.62-6.03,0-9.99,1.36-11.9,4.08-1.91,2.72-2.87,6.63-2.87,11.71v16.37c0,2.51-.87,4.41-2.6,5.7-1.73,1.29-4.01,1.93-6.85,1.93s-5.07-.64-6.85-1.93c-1.78-1.29-2.66-3.19-2.66-5.7v-34.65c0-2.28.8-4.01,2.39-5.19,1.6-1.18,3.7-1.77,6.31-1.77s4.62.56,6.31,1.66c1.69,1.11,2.53,2.64,2.53,4.59v1.15c3.19-2.51,6.61-4.36,10.25-5.55,3.64-1.18,7.69-1.77,12.14-1.77s8.61.61,11.94,1.82c3.33,1.21,6.07,3.05,8.23,5.5,3.1-2.48,6.43-4.33,9.98-5.52,3.55-1.2,7.49-1.8,11.8-1.8,5.03,0,9.37.65,13.02,1.95,3.64,1.3,6.36,3.16,8.16,5.59,1.57,2.19,2.36,5.63,2.36,10.34v23.65c0,2.54-.88,4.45-2.63,5.72-1.75,1.27-4.07,1.91-6.95,1.91s-5.07-.64-6.85-1.93c-1.78-1.29-2.66-3.19-2.66-5.7v-20.36c0-2.6-.17-4.69-.51-6.26-.34-1.57-1.25-2.88-2.73-3.95-1.48-1.07-3.73-1.6-6.74-1.6-2.43,0-4.73.47-6.91,1.42-2.18.95-3.88,2.22-5.09,3.81-1.35,2.04-2.02,5.65-2.02,10.83Z"/>
    <path class="cls-3" d="M627,92.5v18.5c3.46-2.37,6.99-4.18,10.59-5.43,3.6-1.26,8.05-1.89,13.35-1.89,6.11,0,11.48.95,16.08,2.86,4.61,1.91,8.18,4.67,10.72,8.3,2.54,3.62,3.81,7.92,3.81,12.89,0,3.67-.71,7.03-2.12,10.09s-3.47,5.72-6.17,7.96c-2.7,2.25-5.97,3.99-9.81,5.21-3.84,1.23-8.08,1.84-12.71,1.84-2.83,0-5.5-.22-7.99-.67s-4.62-1.03-6.37-1.75c-1.75-.72-3.25-1.47-4.48-2.24-1.24-.77-2.87-1.92-4.89-3.46v1.2c0,2.28-.83,4-2.5,5.17-1.66,1.17-3.78,1.75-6.34,1.75s-4.69-.58-6.24-1.75c-1.55-1.17-2.33-2.89-2.33-5.17v-52.88c0-2.45.75-4.31,2.26-5.57,1.51-1.26,3.61-1.89,6.31-1.89,2.83,0,5.01.6,6.54,1.8,1.53,1.2,2.29,2.91,2.29,5.12ZM627.88,128.48c0,4.82,1.67,8.53,5.02,11.11,3.35,2.59,7.74,3.88,13.18,3.88,4.63,0,8.62-1.32,11.97-3.97,3.35-2.65,5.02-6.44,5.02-11.38,0-3.19-.7-5.94-2.09-8.25-1.39-2.31-3.37-4.09-5.93-5.35-2.56-1.26-5.55-1.89-8.97-1.89s-6.63.63-9.37,1.89c-2.74,1.26-4.9,3.08-6.47,5.46-1.57,2.38-2.36,5.21-2.36,8.5Z"/>
  </g>
</svg>