<?xml version="1.0" encoding="UTF-8"?>
<svg id="_レイヤー_1" data-name="レイヤー 1" xmlns="http://www.w3.org/2000/svg" viewBox="0 0 512 512">
  <defs>
    <style>
      .cls-1 {
        stroke: #fcfcfc;
      }

      .cls-1, .cls-2, .cls-3 {
        fill: #1e1e1e;
      }

      .cls-1, .cls-3 {
        stroke-miterlimit: 10;
        stroke-width: 3px;
      }

      .cls-3 {
        stroke: #1e1e1e;
      }
    </style>
  </defs>
  <g>
    <path class="cls-2" d="M218.85,453.21c21.92-3.52,22.29-17.77,24.49-30.3.57-3.23-1.94-6.19-5.22-6.17l-59.95.24c-4.78.02-7.07,5.89-3.57,9.14,19.17,17.83,35.52,28.48,44.25,27.08Z"/>
    <g>
      <path class="cls-3" d="M83.6,243.17v-.6c-1.48.95-2.95,1.72-4.39,2.32-1.44.6-3.01,1.06-4.69,1.38-1.69.32-3.53.49-5.53.5-2.65.02-5.11-.26-7.37-.86-2.26-.6-4.22-1.46-5.88-2.59-1.66-1.13-2.92-2.46-3.79-4-.86-1.54-1.3-3.21-1.32-5.01-.03-3.8,1.63-6.78,4.99-8.94,3.36-2.15,7.8-3.25,13.32-3.3,3.19-.03,5.88.25,8.08.83,2.2.58,4.34,1.49,6.43,2.72l-.08-8.98c-.01-1.25.43-2.2,1.33-2.84.9-.65,2.19-.98,3.86-.99,1.68-.01,2.97.27,3.88.85.91.58,1.37,1.44,1.38,2.59l.23,26.84c0,1.16-.47,2.03-1.44,2.62-.97.59-2.22.89-3.76.9-1.51.01-2.77-.28-3.76-.87-.99-.59-1.49-1.45-1.5-2.56ZM61.75,234.41c.01,1.65.49,3.05,1.44,4.2.94,1.15,2.23,2.01,3.85,2.59,1.63.57,3.4.85,5.32.84,1.95-.02,3.72-.31,5.33-.88,1.6-.57,2.88-1.44,3.83-2.6.95-1.16,1.42-2.6,1.4-4.33-.01-1.62-.51-3.01-1.48-4.17s-2.27-2.04-3.92-2.64c-1.64-.6-3.43-.9-5.38-.88-2.03.02-3.84.35-5.43.99-1.59.65-2.82,1.56-3.69,2.75-.87,1.19-1.3,2.56-1.28,4.13Z"/>
      <path class="cls-3" d="M134.76,242.77v-.78c-1.32.93-2.71,1.72-4.16,2.35-1.45.64-3.05,1.12-4.77,1.43-1.73.32-3.7.49-5.92.51-2.68.02-5.08-.26-7.21-.85-2.13-.59-3.78-1.42-4.95-2.48-1.39-1.28-2.09-3.13-2.12-5.56l-.1-12.06c-.01-1.22.48-2.13,1.48-2.74.99-.61,2.32-.92,3.97-.94,1.68-.01,3.03.28,4.06.88,1.03.6,1.55,1.5,1.56,2.71l.08,9.74c.01,1.41.24,2.6.68,3.55.44.95,1.22,1.7,2.35,2.23,1.13.53,2.65.79,4.57.77,1.87-.02,3.62-.34,5.26-.96,1.64-.62,2.84-1.43,3.59-2.42.61-.87.91-2.76.88-5.67l-.06-7.4c-.01-1.2.5-2.11,1.52-2.73s2.36-.93,4.01-.95c1.65-.01,2.98.28,3.98.87,1.01.59,1.51,1.5,1.52,2.72l.15,17.64c0,1.16-.46,2.03-1.42,2.62-.95.59-2.19.89-3.7.9-1.51.01-2.77-.28-3.76-.87-.99-.59-1.49-1.43-1.5-2.52Z"/>
      <path class="cls-3" d="M193.76,233.77l.07,8.09c.01,1.28-.51,2.24-1.56,2.89-1.05.65-2.44.98-4.17.99-1.68.01-3.04-.29-4.08-.92-1.05-.63-1.57-1.58-1.59-2.86l-.08-9.7c-.01-1.53-.12-2.72-.31-3.56s-.72-1.54-1.56-2.07c-.84-.53-2.17-.8-3.98-.78-3.62.03-6,.74-7.14,2.11-1.14,1.38-1.7,3.34-1.67,5.9l.07,8.23c.01,1.26-.5,2.22-1.54,2.88-1.03.66-2.4.99-4.11,1.01-1.68.01-3.05-.3-4.12-.93-1.07-.64-1.62-1.59-1.63-2.85l-.15-17.41c0-1.14.46-2.02,1.42-2.62.95-.6,2.21-.91,3.78-.92,1.51-.01,2.78.25,3.8.8,1.02.55,1.53,1.31,1.54,2.29v.58c1.91-1.28,3.96-2.23,6.15-2.84,2.19-.61,4.62-.93,7.29-.95,2.78-.02,5.18.26,7.19.85,2,.59,3.66,1.5,4.97,2.72,1.86-1.26,3.85-2.21,5.98-2.83,2.13-.62,4.49-.94,7.09-.96,3.03-.03,5.64.28,7.84.91,2.19.64,3.84,1.56,4.93,2.77.96,1.09,1.44,2.82,1.46,5.18l.1,11.88c.01,1.28-.51,2.24-1.56,2.89-1.05.65-2.44.98-4.17.99s-3.05-.3-4.12-.93c-1.07-.64-1.62-1.59-1.63-2.85l-.09-10.23c-.01-1.31-.12-2.35-.33-3.14-.21-.79-.76-1.44-1.66-1.97-.9-.53-2.25-.78-4.06-.77-1.46.01-2.84.26-4.15.75-1.31.49-2.32,1.13-3.05,1.94-.8,1.03-1.19,2.85-1.17,5.45Z"/>
      <path class="cls-3" d="M261.66,241.64v-.6c-1.48.95-2.95,1.72-4.39,2.32-1.44.6-3.01,1.06-4.69,1.38-1.69.32-3.53.49-5.53.5-2.65.02-5.11-.26-7.37-.86-2.26-.6-4.22-1.46-5.88-2.59-1.66-1.13-2.92-2.46-3.79-4-.86-1.54-1.3-3.21-1.32-5.01-.03-3.8,1.63-6.78,4.99-8.94,3.36-2.15,7.8-3.25,13.32-3.3,3.19-.03,5.88.25,8.08.83,2.2.58,4.34,1.49,6.43,2.72l-.08-8.98c-.01-1.25.43-2.2,1.33-2.84.9-.65,2.19-.98,3.86-.99,1.68-.01,2.97.27,3.88.85.91.58,1.37,1.44,1.38,2.59l.23,26.84c0,1.16-.47,2.03-1.44,2.62-.97.59-2.22.89-3.76.9s-2.77-.28-3.76-.87c-.99-.59-1.49-1.45-1.5-2.56ZM239.8,232.89c.01,1.65.49,3.05,1.44,4.2.94,1.15,2.23,2.01,3.85,2.59,1.63.57,3.4.85,5.32.84,1.95-.02,3.72-.31,5.33-.88,1.6-.57,2.88-1.44,3.83-2.6.95-1.16,1.42-2.6,1.4-4.33-.01-1.62-.51-3.01-1.48-4.17-.97-1.16-2.27-2.04-3.92-2.64-1.64-.6-3.43-.9-5.38-.88-2.03.02-3.84.35-5.43.99-1.59.65-2.82,1.56-3.69,2.75-.87,1.19-1.3,2.56-1.28,4.13Z"/>
      <path class="cls-3" d="M312.82,241.25v-.78c-1.32.93-2.71,1.72-4.16,2.35-1.45.64-3.05,1.12-4.77,1.43-1.73.32-3.7.49-5.92.51-2.68.02-5.08-.26-7.21-.85-2.13-.59-3.78-1.42-4.95-2.48-1.39-1.28-2.09-3.13-2.12-5.56l-.1-12.06c-.01-1.22.48-2.13,1.48-2.74s2.32-.92,3.97-.94c1.68-.01,3.03.28,4.06.88s1.55,1.5,1.56,2.71l.08,9.74c.01,1.41.24,2.6.68,3.55.44.95,1.22,1.7,2.35,2.23,1.13.53,2.65.79,4.57.77,1.87-.02,3.62-.34,5.26-.96,1.64-.62,2.84-1.43,3.59-2.42.61-.87.91-2.76.88-5.67l-.06-7.4c-.01-1.2.5-2.11,1.52-2.73s2.36-.93,4.01-.95c1.65-.01,2.98.28,3.98.87,1.01.59,1.51,1.5,1.52,2.72l.15,17.64c0,1.16-.46,2.03-1.42,2.62-.95.59-2.19.89-3.7.9-1.51.01-2.77-.28-3.76-.87-.99-.59-1.49-1.43-1.5-2.52Z"/>
      <path class="cls-3" d="M371.81,232.24l.07,8.09c.01,1.28-.51,2.24-1.56,2.89-1.05.65-2.44.98-4.17.99-1.68.01-3.04-.29-4.08-.92-1.05-.63-1.57-1.58-1.59-2.86l-.08-9.7c-.01-1.53-.12-2.72-.31-3.56s-.72-1.54-1.56-2.07c-.84-.53-2.17-.8-3.98-.78-3.62.03-6,.74-7.14,2.11-1.14,1.38-1.7,3.34-1.67,5.9l.07,8.23c.01,1.26-.5,2.22-1.54,2.88-1.03.66-2.4.99-4.11,1.01-1.68.01-3.05-.3-4.12-.93-1.07-.64-1.62-1.59-1.63-2.85l-.15-17.41c0-1.14.46-2.02,1.42-2.62.95-.6,2.21-.91,3.78-.92,1.51-.01,2.78.25,3.8.8,1.02.55,1.53,1.31,1.54,2.29v.58c1.91-1.28,3.96-2.23,6.15-2.84,2.19-.61,4.62-.93,7.29-.95s5.18.26,7.19.85c2,.59,3.66,1.5,4.97,2.72,1.86-1.26,3.85-2.21,5.98-2.83,2.13-.62,4.49-.94,7.09-.96,3.03-.03,5.64.28,7.84.91,2.19.64,3.84,1.56,4.93,2.77.96,1.09,1.44,2.82,1.46,5.18l.1,11.88c.01,1.28-.51,2.24-1.56,2.89-1.05.65-2.44.98-4.17.99-1.68.01-3.05-.3-4.12-.93-1.07-.64-1.62-1.59-1.63-2.85l-.09-10.23c-.01-1.31-.12-2.35-.33-3.14-.21-.79-.76-1.44-1.66-1.97-.9-.53-2.25-.78-4.06-.77-1.46.01-2.84.26-4.15.75-1.31.49-2.32,1.13-3.05,1.94-.8,1.03-1.19,2.85-1.17,5.45Z"/>
      <path class="cls-3" d="M419.36,213.44l.08,9.3c2.07-1.21,4.19-2.14,6.34-2.79,2.16-.65,4.83-.99,8.02-1.02,3.68-.03,6.9.42,9.68,1.35,2.78.94,4.94,2.31,6.48,4.11,1.54,1.81,2.32,3.96,2.35,6.46.02,1.84-.4,3.54-1.23,5.08-.84,1.55-2.06,2.89-3.68,4.03-1.61,1.14-3.57,2.03-5.88,2.67-2.31.64-4.85.97-7.64.99-1.7.01-3.31-.08-4.81-.29-1.5-.21-2.78-.49-3.84-.85-1.06-.36-1.96-.72-2.71-1.1-.75-.38-1.73-.95-2.96-1.71v.6c.01,1.14-.48,2.01-1.47,2.61-.99.6-2.26.9-3.8.91-1.57.01-2.82-.27-3.76-.85-.94-.58-1.41-1.44-1.42-2.59l-.23-26.58c-.01-1.23.43-2.17,1.33-2.81.9-.64,2.16-.97,3.78-.98,1.7-.01,3.02.28,3.94.87.92.59,1.39,1.45,1.4,2.56ZM420.05,231.52c.02,2.42,1.04,4.28,3.07,5.56,2.02,1.28,4.67,1.91,7.94,1.88,2.78-.02,5.18-.71,7.18-2.06,2-1.35,2.99-3.26,2.97-5.74-.01-1.61-.44-2.98-1.29-4.14-.85-1.15-2.05-2.04-3.59-2.66-1.55-.62-3.35-.92-5.4-.9s-3.99.35-5.63,1c-1.64.65-2.93,1.57-3.87,2.78-.94,1.2-1.4,2.63-1.38,4.28Z"/>
    </g>
    <path class="cls-2" d="M403.7,183.19c-52.9-86.95-105.33-129.29-130.59-130.13-43.52-1.45-5.29,56.24-74.09,57.49-60.69,1.11-32.77,70.85-90.31,69.64-9.25-.19-17.19.58-23.95,2.21-5.29,1.28-4.36,9.05,1.08,9.03l313.99-1.28c3.56-.01,5.74-3.92,3.88-6.96ZM253.12,127.08c-9.27-6.78-11.29-19.8-4.5-29.07,6.78-9.27,19.8-11.29,29.07-4.5,9.27,6.78,11.29,19.8,4.5,29.07-6.78,9.27-19.8,11.29-29.07,4.5ZM322.5,161.74c-7.63,10.43-22.27,12.7-32.7,5.07s-12.7-22.27-5.07-32.7c7.63-10.43,22.27-12.7,32.7-5.07s12.7,22.27,5.07,32.7Z"/>
  </g>
  <g>
    <path class="cls-1" d="M282.35,313.77c-1.4-.84-2.94-1.25-4.61-1.22-2.67.04-4.91,1-6.72,2.87-1.81,1.88-2.68,4.61-2.62,8.2.05,3.38,1,6,2.85,7.85,1.85,1.85,4.12,2.75,6.82,2.71,1.61-.02,3.09-.46,4.45-1.3,1.36-.84,2.44-2.09,3.24-3.74.8-1.65,1.19-3.64,1.15-5.96-.03-2.24-.45-4.16-1.26-5.76-.81-1.6-1.91-2.81-3.3-3.65Z"/>
    <path class="cls-1" d="M232,313.19c-1.89.03-3.55.49-4.98,1.37-1.43.88-2.52,2.17-3.28,3.86s-1.12,3.66-1.08,5.9c.03,2.22.45,4.15,1.24,5.8.79,1.65,1.91,2.9,3.36,3.76,1.44.86,3.14,1.27,5.08,1.24,2.93-.04,5.25-1.05,6.96-3.02,1.71-1.97,2.54-4.66,2.48-8.09-.05-3.46-.96-6.15-2.73-8.05-1.77-1.9-4.12-2.83-7.05-2.79Z"/>
    <path class="cls-1" d="M441.5,280.22c-.4-8.03-7.14-14.28-15.18-14.2-56.21.58-269.8,1.13-340.73,1.41-11.12.04-18.37,11.72-13.45,21.7,12.19,24.72,28.98,50.69,47.01,74.51,2.87,3.79,7.36,5.98,12.11,5.94,32.17-.28,158.63-.64,196.54-.81,6.23-.03,11.77-3.9,14-9.71,29.21-76.1,103.16-9.61,99.69-78.84ZM161.69,337.44c-1.28,1.69-3.18,2.99-5.71,3.89-2.53.9-5.62,1.38-9.26,1.43-3.48.05-6.46-.37-8.96-1.26-2.5-.9-4.35-2.04-5.55-3.42-1.2-1.38-1.82-2.78-1.84-4.19-.01-.93.35-1.74,1.1-2.41.75-.67,1.7-1.02,2.86-1.04,1.02-.02,1.8.19,2.35.62.55.43,1.08,1.03,1.59,1.81,1.02,1.5,2.22,2.61,3.62,3.34,1.39.73,3.29,1.07,5.68,1.03,1.94-.03,3.52-.43,4.75-1.21s1.84-1.65,1.82-2.63c-.02-1.49-.68-2.57-1.98-3.24-1.3-.67-3.43-1.29-6.4-1.86-3.35-.67-6.07-1.4-8.18-2.16-2.1-.77-3.8-1.79-5.07-3.08-1.27-1.29-1.93-2.89-1.95-4.8-.03-1.7.53-3.32,1.66-4.85s2.83-2.77,5.07-3.71c2.24-.94,4.96-1.43,8.16-1.48,2.51-.04,4.76.16,6.77.58,2.01.43,3.68,1.01,5.03,1.76,1.35.75,2.38,1.58,3.09,2.51.71.92,1.08,1.83,1.09,2.72.01.98-.35,1.78-1.08,2.41-.74.63-1.79.96-3.16.98-.99.02-1.84-.22-2.55-.71-.71-.49-1.52-1.22-2.43-2.2-.75-.82-1.62-1.47-2.62-1.95-1-.48-2.35-.71-4.06-.69-1.75.03-3.2.38-4.35,1.05-1.15.67-1.72,1.49-1.7,2.47.01.89.45,1.62,1.31,2.17.86.56,2.01,1.01,3.46,1.36,1.45.35,3.44.78,5.98,1.28,3.01.6,5.48,1.33,7.4,2.19s3.38,1.89,4.38,3.09c1,1.2,1.51,2.58,1.54,4.13.04,2.35-.58,4.36-1.86,6.05ZM204.73,340.57c-.87.88-2.04,1.34-3.51,1.36-3.19.05-4.82-1.65-4.87-5.09l-.22-14.35c-.04-2.72-.53-4.8-1.48-6.25-.94-1.45-2.71-2.15-5.28-2.11-1.73.03-3.28.48-4.65,1.36-1.37.88-2.39,2.08-3.05,3.58-.5,1.27-.73,3.53-.68,6.77l.17,11.24c.03,1.68-.39,2.97-1.24,3.86-.85.9-2.04,1.35-3.58,1.38-3.19.05-4.82-1.65-4.87-5.09l-.56-36.85c-.03-1.72.37-3.02,1.2-3.89.83-.87,2-1.32,3.51-1.35,1.54-.02,2.74.39,3.62,1.25.88.86,1.33,2.14,1.35,3.84l.19,12.61c1.21-1.26,2.4-2.27,3.56-3.01,1.16-.74,2.45-1.31,3.86-1.69,1.41-.38,2.94-.59,4.57-.61,2.46-.04,4.65.39,6.57,1.27,1.92.88,3.43,2.19,4.55,3.92.7,1.01,1.18,2.14,1.44,3.39.26,1.25.4,2.7.42,4.34l.25,16.28c.03,1.7-.4,3-1.27,3.88ZM250.27,330.9c-.87,2.15-2.14,4.01-3.82,5.57-1.68,1.56-3.7,2.77-6.05,3.63-2.35.86-5.01,1.31-7.96,1.35-2.93.04-5.58-.33-7.93-1.12-2.35-.79-4.4-1.95-6.14-3.47-1.74-1.52-3.07-3.33-3.99-5.42-.92-2.09-1.4-4.42-1.44-6.97-.04-2.57.37-4.94,1.24-7.09.87-2.15,2.13-4,3.78-5.54,1.66-1.54,3.67-2.74,6.05-3.59s5.01-1.31,7.89-1.35c2.93-.04,5.6.33,8,1.12,2.4.79,4.47,1.95,6.19,3.45,1.73,1.51,3.05,3.32,3.97,5.42.92,2.1,1.4,4.43,1.44,6.98.04,2.53-.37,4.87-1.24,7.02ZM295.48,330.35c-.81,2.2-1.93,4.06-3.37,5.56-1.44,1.51-3.16,2.67-5.14,3.5-1.99.83-4.13,1.26-6.42,1.3-2.77.04-5.1-.41-6.99-1.36-1.9-.95-3.71-2.35-5.44-4.21l.2,12.76c.06,3.74-1.46,5.63-4.56,5.67-1.82.03-3.04-.44-3.64-1.39-.61-.96-.92-2.36-.95-4.2l-.56-36.67c-.02-1.62.36-2.83,1.15-3.65.79-.81,1.89-1.23,3.28-1.25,1.37-.02,2.5.37,3.37,1.18.88.81,1.33,1.98,1.35,3.51l.02,1.03c1.79-2,3.66-3.48,5.61-4.43,1.95-.95,4.17-1.45,6.65-1.49,2.98-.05,5.73.59,8.26,1.9,2.53,1.31,4.54,3.25,6.03,5.82,1.49,2.57,2.27,5.63,2.32,9.18.04,2.61-.34,5.02-1.15,7.23ZM334.55,333.53c-2.77,5.03-9.09,6.87-14.12,4.11s-6.87-9.09-4.11-14.12c2.77-5.03,9.09-6.87,14.12-4.11,5.03,2.77,6.87,9.09,4.11,14.12Z"/>
    <path class="cls-1" d="M327.87,324.1c-2.45-1.34-5.52-.45-6.86,2-1.34,2.45-.45,5.52,2,6.86,2.45,1.34,5.52.45,6.86-2,1.34-2.45.45-5.52-2-6.86Z"/>
  </g>
</svg>